<svg aria-hidden="true" style="position: absolute; width: 0; height: 0; overflow: hidden;" version="1.1" xmlns="http://www.w3.org/2000/svg" xmlns:xlink="http://www.w3.org/1999/xlink">
<defs>
<symbol id="icon-carbon_logo-youtube" viewBox="0 0 32 32">
<path d="M29.41 9.26c-0.159-0.592-0.471-1.132-0.905-1.565s-0.973-0.745-1.565-0.905c-2.18-0.59-10.94-0.59-10.94-0.59s-8.76 0-10.94 0.59c-0.592 0.159-1.132 0.471-1.565 0.905s-0.745 0.973-0.905 1.565c-0.407 2.223-0.605 4.48-0.59 6.74-0.015 2.26 0.183 4.517 0.59 6.74 0.159 0.592 0.471 1.132 0.905 1.565s0.973 0.746 1.565 0.905c2.18 0.59 10.94 0.59 10.94 0.59s8.76 0 10.94-0.59c0.592-0.159 1.132-0.471 1.565-0.905s0.745-0.973 0.905-1.565c0.407-2.223 0.605-4.48 0.59-6.74 0.015-2.26-0.183-4.517-0.59-6.74zM13.2 20.2v-8.4l7.27 4.2-7.27 4.2z"></path>
</symbol>
<symbol id="icon-facebook" viewBox="0 0 32 32">
<path d="M17.862 27.996v-10.929h3.687l0.548-4.278h-4.234v-2.725c0-1.234 0.343-2.080 2.116-2.080h2.245v-3.815c-0.95-0.108-2.051-0.169-3.167-0.169-0.043 0-0.086 0-0.129 0l0.007-0c-3.258 0-5.495 1.989-5.495 5.642v3.138h-3.663v4.279h3.67v10.937h4.416z"></path>
</symbol>
<symbol id="icon-telegram" viewBox="0 0 32 32">
<path d="M27.553 4.956l-23.64 9.116c-1.613 0.648-1.604 1.548-0.296 1.949l6.069 1.893 14.043-8.86c0.664-0.404 1.271-0.187 0.772 0.256l-11.377 10.269-0.419 6.256c0.613 0 0.884-0.28 1.228-0.613l2.948-2.867 6.132 4.529c1.131 0.623 1.943 0.303 2.224-1.047l4.025-18.971c0.412-1.652-0.631-2.4-1.709-1.912z"></path>
</symbol>
<symbol id="icon-mail" viewBox="0 0 32 32">
<path d="M2.518 8.458l12 6.446c0.403 0.216 0.925 0.318 1.45 0.318s1.046-0.102 1.45-0.318l12-6.446c0.782-0.421 1.522-2.058 0.086-2.058h-27.070c-1.435 0-0.696 1.637 0.085 2.058zM29.781 11.982l-12.363 6.443c-0.544 0.285-0.925 0.318-1.45 0.318s-0.906-0.034-1.45-0.318c-0.544-0.285-11.413-5.982-12.301-6.445-0.624-0.326-0.618 0.056-0.618 0.35v11.669c0 0.672 0.906 1.6 1.6 1.6h25.6c0.694 0 1.6-0.928 1.6-1.6v-11.667c0-0.294 0.006-0.677-0.619-0.35z"></path>
</symbol>
<symbol id="icon-old-phone" viewBox="0 0 32 32">
<path d="M27.61 19.605c-0.154-1.067-0.978-1.899-2.038-2.147-4.123-0.966-5.157-3.341-5.331-5.974-0.731-0.136-2.032-0.283-4.24-0.283s-3.509 0.147-4.24 0.283c-0.174 2.634-1.208 5.008-5.331 5.974-1.061 0.25-1.885 1.080-2.038 2.147l-0.795 5.507c-0.28 1.939 1.144 3.688 3.125 3.688h18.56c1.979 0 3.405-1.749 3.125-3.688l-0.795-5.507zM16 24.787c-2.232 0-4.042-1.792-4.042-4s1.81-4 4.042-4c2.232 0 4.042 1.792 4.042 4s-1.811 4-4.042 4zM31.92 9.6c-0.038-2.4-6.147-6.398-15.92-6.4-9.774 0.002-15.883 4-15.92 6.4s0.034 5.523 4.056 5.003c4.706-0.61 4.416-2.253 4.416-4.602 0-1.638 3.827-2.034 7.448-2.034s7.446 0.395 7.448 2.034c0 2.349-0.29 3.992 4.416 4.602 4.021 0.52 4.093-2.603 4.056-5.003z"></path>
</symbol>
<symbol id="icon-vk" viewBox="0 0 32 32">
<path d="M28.483 19.677s2.587 2.555 3.227 3.737c0.012 0.016 0.022 0.035 0.029 0.055l0 0.001c0.261 0.436 0.325 0.779 0.197 1.032-0.216 0.417-0.947 0.627-1.195 0.644h-4.573c-0.319 0-0.981-0.083-1.787-0.64-0.616-0.429-1.229-1.139-1.823-1.831-0.887-1.029-1.653-1.923-2.429-1.923-0.001 0-0.001 0-0.002 0-0.102 0-0.201 0.018-0.292 0.050l0.006-0.002c-0.587 0.187-1.333 1.023-1.333 3.252 0 0.697-0.549 1.093-0.935 1.093h-2.095c-0.713 0-4.429-0.249-7.724-3.723-4.035-4.253-7.661-12.784-7.697-12.859-0.225-0.552 0.248-0.853 0.76-0.853h4.617c0.62 0 0.821 0.373 0.963 0.711 0.163 0.385 0.768 1.928 1.76 3.66 1.605 2.82 2.593 3.967 3.381 3.967 0.149 0 0.293-0.037 0.423-0.112 1.031-0.567 0.839-4.247 0.791-5.004 0-0.147-0.001-1.644-0.529-2.367-0.377-0.519-1.021-0.72-1.409-0.793 0.104-0.151 0.324-0.381 0.608-0.517 0.705-0.352 1.98-0.403 3.245-0.403h0.703c1.373 0.019 1.728 0.107 2.227 0.233 1.005 0.24 1.025 0.891 0.937 3.108-0.027 0.635-0.053 1.347-0.053 2.187 0 0.18-0.008 0.38-0.008 0.584-0.031 1.137-0.071 2.419 0.733 2.945 0.098 0.062 0.218 0.099 0.346 0.099 0 0 0 0 0.001 0h-0c0.279 0 1.112 0 3.373-3.88 0.992-1.713 1.76-3.733 1.813-3.887 0.044-0.084 0.179-0.323 0.341-0.419 0.104-0.056 0.228-0.090 0.36-0.090 0.006 0 0.012 0 0.019 0l-0.001-0h5.432c0.592 0 0.993 0.089 1.072 0.313 0.132 0.363-0.025 1.472-2.505 4.827-0.417 0.557-0.784 1.040-1.107 1.463-2.247 2.951-2.247 3.1 0.133 5.34z"></path>
</symbol>
<symbol id="icon-first-screen" viewBox="0 0 94 32">
<path d="M0 0h85.333v32h-85.333z"></path>
</symbol>
<symbol id="icon-logo" viewBox="0 0 133 32">
<path fill="#fff" style="fill: var(--color1, #fff)" d="M27.415 27.372c-3.095 3.084-6.884 4.628-11.364 4.628s-8.283-1.543-11.408-4.628c-3.095-3.116-4.643-6.906-4.643-11.372s1.548-8.242 4.643-11.328c3.124-3.114 6.927-4.672 11.408-4.672s8.269 1.557 11.364 4.672c3.125 3.086 4.687 6.862 4.687 11.328s-1.562 8.257-4.687 11.372zM8.225 23.934c2.122 2.086 4.731 3.129 7.826 3.129s5.689-1.043 7.783-3.129c2.122-2.116 3.183-4.761 3.183-7.934s-1.061-5.803-3.183-7.889c-2.094-2.116-4.687-3.174-7.783-3.174s-5.705 1.058-7.826 3.174c-2.093 2.087-3.14 4.716-3.14 7.89s1.046 5.818 3.14 7.934zM49.357 32c-4.805 0-8.122-1.881-9.95-5.642l4.378-2.556c1.002 2.174 2.874 3.262 5.616 3.262 1.769 0 3.124-0.426 4.068-1.278 0.973-0.882 1.459-2.116 1.459-3.703v-21.51h5.086v21.51c0 3.174-1.003 5.628-3.007 7.361-2.004 1.705-4.554 2.556-7.649 2.556zM79.178 32c-4.805 0-8.121-1.881-9.949-5.642l4.378-2.556c1.002 2.174 2.874 3.262 5.615 3.262 1.769 0 3.125-0.426 4.068-1.278 0.973-0.882 1.459-2.116 1.459-3.703v-21.51h5.085v21.51c0 3.174-1.002 5.628-3.007 7.361-2.004 1.705-4.554 2.556-7.65 2.556zM128.236 27.372c-3.095 3.085-6.883 4.628-11.364 4.628s-8.284-1.543-11.409-4.628c-3.095-3.115-4.642-6.906-4.642-11.372s1.548-8.242 4.642-11.328c3.125-3.114 6.928-4.672 11.409-4.672s8.269 1.557 11.364 4.672c3.125 3.086 4.687 6.862 4.687 11.328s-1.562 8.257-4.687 11.372zM109.046 23.934c2.122 2.086 4.731 3.129 7.826 3.129s5.689-1.043 7.782-3.129c2.122-2.116 3.184-4.761 3.184-7.934s-1.062-5.803-3.184-7.889c-2.093-2.116-4.687-3.174-7.782-3.174s-5.704 1.058-7.826 3.174c-2.093 2.086-3.14 4.716-3.14 7.89s1.047 5.818 3.14 7.934z"></path>
<path fill="#fff" style="fill: var(--color1, #fff)" d="M22.234 14.728l-0.003-0.032c-0.008-0.043-0.020-0.082-0.038-0.118l0.001 0.003-1.809-3.243s-0.231-0.319-0.286-0.319h-7.713l-2.32 3.452-0.027 0.032-0.004 0.015c-0.018 0.032-0.034 0.068-0.047 0.107l-0.001 0.004-0.009 0.031c-0.012 0.043-0.019 0.093-0.019 0.145 0 0.056 0.008 0.111 0.024 0.162l-0.001-0.004 0.010 0.034c0.015 0.043 0.033 0.080 0.055 0.114l-0.001-0.002 5.62 7.926c0.030 0.043 0.066 0.080 0.106 0.11l0.001 0.001 0.032 0.023c0.033 0.023 0.071 0.043 0.111 0.058l0.004 0.001 0.031 0.012c0.055 0.015 0.103 0.022 0.149 0.022 0.056-0.001 0.109-0.010 0.159-0.026l-0.004 0.001 0.038-0.015c0.042-0.017 0.079-0.038 0.112-0.062l-0.002 0.001 0.025-0.017c0.037-0.029 0.069-0.061 0.096-0.098l0.001-0.001 5.615-7.916c0.048-0.071 0.082-0.157 0.094-0.249l0-0.003 0.004-0.041 0.002-0.033-0.007-0.076zM19.223 14.518l0.799-1.61 0.799 1.61h-1.598zM18.744 15.471h1.897l-3.161 4.457 1.264-4.457zM18.275 14.035l-1.154-1.743h2.020l-0.865 1.743zM14.577 15.471h3.045l-1.522 5.367-1.522-5.367zM14.879 14.518l1.22-1.843 1.22 1.843h-2.439zM14.020 13.89l-0.529-1.599h1.588l-1.058 1.599zM14.719 19.929l-3.161-4.457h1.897l1.264 4.457zM12.575 12.919l0.529 1.599h-1.588l1.058-1.599zM122.953 14.728l-0.004-0.032c-0.007-0.043-0.020-0.082-0.037-0.118l0.001 0.003-1.81-3.243s-0.231-0.319-0.286-0.319h-7.713l-2.319 3.452-0.028 0.032-0.004 0.015c-0.018 0.032-0.034 0.068-0.047 0.107l-0.001 0.004-0.009 0.031c-0.012 0.043-0.019 0.093-0.019 0.145 0 0.056 0.008 0.111 0.024 0.162l-0.001-0.004 0.011 0.034c0.015 0.043 0.033 0.080 0.055 0.114l-0.001-0.002 5.619 7.926c0.030 0.043 0.066 0.080 0.106 0.11l0.001 0.001 0.033 0.023c0.033 0.023 0.070 0.043 0.11 0.058l0.004 0.001 0.032 0.012c0.044 0.014 0.096 0.022 0.149 0.022h0c0.056-0.001 0.109-0.010 0.159-0.026l-0.004 0.001 0.038-0.015c0.042-0.017 0.079-0.038 0.112-0.062l0.024-0.016c0.037-0.029 0.069-0.061 0.096-0.098l0.001-0.001 5.615-7.916c0.048-0.071 0.082-0.157 0.094-0.249l0-0.003 0.004-0.041 0.002-0.033-0.007-0.076zM119.942 14.518l0.799-1.61 0.799 1.61h-1.598zM119.463 15.471h1.897l-3.161 4.457 1.264-4.457zM118.994 14.035l-1.154-1.743h2.020l-0.865 1.743zM115.297 15.471h3.045l-1.523 5.367-1.522-5.367zM115.598 14.518l1.22-1.843 1.22 1.843h-2.44zM114.739 13.89l-0.529-1.599h1.588l-1.058 1.599zM115.439 19.929l-3.161-4.457h1.897l1.265 4.457zM113.295 12.919l0.529 1.599h-1.588l1.058-1.599z"></path>
</symbol>
<symbol id="icon-account" viewBox="0 0 32 32">
<path fill="#fff" style="fill: var(--color1, #fff)" d="M16 5.333c2.946 0 5.333 2.388 5.333 5.333s-2.388 5.333-5.333 5.333v0c-2.946 0-5.333-2.388-5.333-5.333s2.388-5.333 5.333-5.333v0zM16 18.667c5.893 0 10.667 2.387 10.667 5.333v2.667h-21.333v-2.667c0-2.947 4.773-5.333 10.667-5.333z"></path>
</symbol>
<symbol id="icon-Rectangle" viewBox="0 0 48 32">
<path d="M0 0h48v32h-48z"></path>
</symbol>
<symbol id="icon-Rectangle-14-1" viewBox="0 0 48 32">
<path d="M0 0h48v32h-48z"></path>
</symbol>
<symbol id="icon-etsy" viewBox="0 0 32 32">
<path d="M11.42 3.26c0-0.434 0.042-0.694 0.786-0.694h9.952c1.734 0 2.694 1.48 3.388 4.258l0.56 2.22h1.692c0.308-6.302 0.574-9.044 0.574-9.044s-4.26 0.48-6.786 0.48h-12.732l-6.82-0.22v1.828l2.3 0.434c1.614 0.32 2 0.662 2.134 2.142 0 0 0.146 4.36 0.146 11.52 0 7.18-0.12 11.48-0.12 11.48 0 1.298-0.52 1.778-2.12 2.098l-2.296 0.44v1.798l6.84-0.22h11.4c2.58 0 8.52 0.22 8.52 0.22 0.14-1.56 1-8.64 1.14-9.42h-1.6l-1.712 3.88c-1.34 3.040-3.3 3.26-5.48 3.26h-6.54c-2.174 0-3.22-0.852-3.22-2.732v-9.92s4.826 0 6.386 0.126c1.216 0.086 1.95 0.434 2.346 2.132l0.52 2.26h1.88l-0.12-5.704 0.256-5.74h-1.854l-0.6 2.52c-0.378 1.658-0.64 1.96-2.34 2.132-2.22 0.228-6.42 0.188-6.42 0.188v-11.716h-0.066l0.004-0.006z"></path>
</symbol>
<symbol id="icon-subscribe" viewBox="0 0 32 32">
<path fill="#fff" style="fill: var(--color1, #fff)" d="M20.706 16l-7.059 4.075v-8.151l7.059 4.075z"></path>
<path fill="none" stroke="#fff" style="stroke: var(--color1, #fff)" stroke-linejoin="miter" stroke-linecap="butt" stroke-miterlimit="4" stroke-width="1.8824" d="M8.941 3.774l21.176 12.226-21.176 12.226v-24.452z"></path>
</symbol>
<symbol id="icon-like" viewBox="0 0 32 32">
<path fill="#fff" style="fill: var(--color1, #fff)" d="M15.952 8.171c-4.894-7.564-14.809-3.442-14.809 4.798 0 6.187 13.589 15.868 14.809 17.127 1.23-1.259 14.144-10.939 14.144-17.127 0-8.178-9.237-12.363-14.144-4.798z"></path>
</symbol>
</defs>
</svg>
